# xmcd CD database file
#
# Track frame offsets:
#	150
#	18157
#	26393
#	40338
#	53336
#	69030
#	74318
#	86527
#	102477
#	121781
#	135696
#	154883
#	164922
#	176156
#	189583
#	209400
#	220542
#	237367
#	245860
#	263161
#
# Disc length: 3681 seconds
#
# Revision: 0
# Processed by: cddbd v1.5.2PL0 Copyright (c) Steve Scherf et al.
# Submitted via: CDex 1.70beta2
#
DISCID=180e5f14
DTITLE=Amanda McBroom - The Amanda Albums
DYEAR=1900
DGENRE=New Age
TTITLE0=The Portrait
TTITLE1=Peter The Hermit
TTITLE2=The Rose
TTITLE3=You've Lost That Lovin Feelin
TTITLE4=Dusk
TTITLE5=Hooray For Hollywood
TTITLE6=Growing Up In Hollywood
TTITLE7=Love Letters
TTITLE8=Amanda
TTITLE9=Silent Lady
TTITLE10=Over The Rainbow/Dorothy
TTITLE11=Dock Of The Bay
TTITLE12=Not Gonna Say I'm Sorry
TTITLE13=The Walk To Chatham Corners
TTITLE14=Gossamer
TTITLE15=Happy Ending
TTITLE16=Only With You
TTITLE17=Kitshicker
TTITLE18=Reynosa
TTITLE19=My Father Always Promised
EXTD=
EXTT0=
EXTT1=
EXTT2=
EXTT3=
EXTT4=
EXTT5=
EXTT6=
EXTT7=
EXTT8=
EXTT9=
EXTT10=
EXTT11=
EXTT12=
EXTT13=
EXTT14=
EXTT15=
EXTT16=
EXTT17=
EXTT18=
EXTT19=
PLAYORDER=
